PathFileType	4	(X/Y/Z)	TVC_9_BWA2_walk_RCNL2025.trc
DataRate	CameraRate	NumFrames	NumMarkers	Units	OrigDataRate	OrigDataStartFrame	OrigNumFrames
100	100	9	27	mm	100	1	364
Frame#	Time	R_Shoulder			L_Shoulder			C7			J_Notch			R_Elbow			L_Elbow			R_Wrist			L_Wrist			R_Asis			L_Asis			R_Psis			L_Psis			Sacral			Thoracic			Sternum			R_Thigh_Lateral			R_Knee_Lateral			R_Shank_Lateral			R_Ankle_Lateral			R_Heel			R_Toe			L_Thigh_Lateral			L_Knee_Lateral			L_Shank_Lateral			L_Ankle_Lateral			L_Heel			L_Toe		
		X1	Y1	Z1	X2	Y2	Z2	X3	Y3	Z3	X4	Y4	Z4	X5	Y5	Z5	X6	Y6	Z6	X7	Y7	Z7	X8	Y8	Z8	X9	Y9	Z9	X10	Y10	Z10	X11	Y11	Z11	X12	Y12	Z12	X13	Y13	Z13	X14	Y14	Z14	X15	Y15	Z15	X16	Y16	Z16	X17	Y17	Z17	X18	Y18	Z18	X19	Y19	Z19	X20	Y20	Z20	X21	Y21	Z21	X22	Y22	Z22	X23	Y23	Z23	X24	Y24	Z24	X25	Y25	Z25	X26	Y26	Z26	X27	Y27	Z27
1	0.00000000	-2481.310791	1365.963135	259.077637	-2504.477783	1371.328491	-134.832169	-2547.764648	1434.702148	56.277313	-2395.578369	1333.308472	64.529015	-2602.129639	1051.914062	337.066162	-2442.402832	1044.647217	-234.376328	-2585.782227	801.525085	322.338852	-2281.566528	861.066254	-223.314217	-2452.899414	922.711975	211.849762	-2483.112305	929.792969	-91.682419	-2653.114990	945.298767	129.813248	-2664.117188	947.504272	30.058397	-2658.616089	946.401520	79.935822	-2650.866455	1158.857788	70.997437	-2335.272705	1146.904663	58.100864	-2417.583984	519.444031	263.272308	-2419.459229	443.818451	193.762894	-2392.189209	285.675171	231.097748	-2389.053223	62.539783	151.964981	-2438.755127	45.328644	88.767097	-2257.650146	51.355392	117.328705	-2524.650391	562.689514	-130.224579	-2582.208496	439.923157	-73.524765	-2668.537598	322.007385	-116.828804	-2801.397949	138.040985	-33.018131	-2852.487305	151.144867	25.605700	-2707.821777	28.537016	-2.210853
2	0.01000000	-2472.803711	1365.836426	260.262421	-2496.857178	1372.171753	-133.145905	-2539.879639	1434.604004	57.923107	-2387.352783	1333.797485	65.717972	-2591.467529	1050.976074	338.978760	-2439.952881	1043.651245	-232.076721	-2565.970215	801.412537	324.041748	-2280.995117	858.745209	-221.645683	-2444.077637	922.975647	212.953415	-2473.784180	930.009216	-90.016144	-2644.570068	945.821777	131.361359	-2655.541016	947.160339	31.453667	-2650.055542	946.491058	81.407513	-2642.379639	1158.870605	72.208344	-2326.326172	1147.524536	59.242714	-2418.552002	519.907104	264.294098	-2413.629150	443.912445	194.527863	-2389.221680	285.069611	231.304489	-2387.505859	62.190025	151.786575	-2438.033447	45.665001	88.938972	-2256.548340	49.519611	116.476089	-2503.782715	562.054077	-131.330170	-2560.555176	438.912933	-76.134682	-2650.867676	324.506409	-118.980072	-2789.804199	148.278732	-34.760998	-2838.253906	165.523682	23.841875	-2707.750732	30.457344	-2.261083
3	0.02000000	-2464.260254	1365.668579	261.351776	-2489.217285	1372.866089	-131.628403	-2531.957764	1434.536499	59.447411	-2379.152344	1334.224976	66.800423	-2580.614258	1050.043945	340.978455	-2437.461426	1042.625488	-229.807541	-2546.154297	801.555939	325.748245	-2280.442993	856.324585	-219.907990	-2435.314453	923.226257	214.024918	-2464.638184	930.160217	-88.504532	-2636.100586	946.328125	132.831985	-2647.025879	946.846741	32.807941	-2641.563232	946.587433	82.819963	-2633.940918	1158.909790	73.391983	-2317.568115	1147.976929	60.287365	-2417.639160	520.462830	265.345734	-2407.900879	443.999023	195.287552	-2385.933838	284.540314	231.512573	-2386.119385	61.875023	151.644897	-2437.363525	45.973087	89.080803	-2255.577881	47.976528	115.798180	-2483.217041	561.783325	-132.342911	-2538.775635	438.285583	-78.452126	-2632.251709	326.925507	-120.989502	-2777.131348	158.184250	-36.562973	-2823.404785	179.122070	21.885576	-2705.189697	33.363613	-2.611038
4	0.03000000	-2455.680664	1365.460083	262.345703	-2481.557861	1373.412476	-130.279282	-2523.999756	1434.499756	60.850262	-2370.976562	1334.591553	67.776497	-2569.569580	1049.118530	343.064575	-2434.927979	1041.570923	-227.568893	-2526.335938	801.955841	327.457977	-2279.908813	853.803802	-218.110321	-2426.608887	923.464661	215.064392	-2455.673584	930.247314	-87.147095	-2627.706055	946.817749	134.225037	-2638.571045	946.563538	34.120953	-2633.138550	946.690643	84.172995	-2625.550293	1158.975098	74.548256	-2308.998779	1148.263184	61.235229	-2414.832031	521.095032	266.421326	-2402.276611	444.077789	196.041183	-2382.342041	284.085938	231.720367	-2384.894775	61.595131	151.539276	-2436.745850	46.253029	89.191795	-2254.740723	46.722557	115.289383	-2462.972412	561.882568	-133.260345	-2516.875732	438.043976	-80.475502	-2612.715088	329.279419	-122.852242	-2763.382812	167.741821	-38.421196	-2807.943604	191.918106	19.745193	-2700.125244	37.225597	-3.264271
5	0.04000000	-2447.066162	1365.213257	263.244385	-2473.878906	1373.813232	-129.097443	-2516.005615	1434.493896	62.131771	-2362.825928	1334.897949	68.646545	-2558.332275	1048.202148	345.235138	-2432.351318	1040.489868	-225.361084	-2506.518555	802.613647	329.170074	-2279.387817	851.176239	-216.271744	-2417.960938	923.692871	216.072266	-2446.888184	930.273926	-85.942329	-2619.386230	947.290894	135.540314	-2630.176025	946.311157	35.391960	-2624.781128	946.801025	85.466137	-2617.207520	1159.066650	75.676888	-2300.619629	1148.386719	62.087463	-2410.141357	521.764343	267.506927	-2396.762939	444.147339	196.786850	-2378.489746	283.701691	231.924713	-2383.832520	61.351379	151.467972	-2436.181152	46.505463	89.270142	-2254.038818	45.746418	114.936562	-2443.089600	562.362488	-134.075912	-2494.870117	438.194672	-82.201355	-2592.323975	331.606506	-124.557625	-2748.566406	176.909851	-40.328754	-2791.880127	203.854874	17.442738	-2692.531494	41.962727	-4.228994
6	0.05000000	-2438.419434	1364.931885	264.048096	-2466.180176	1374.073364	-128.080383	-2507.976807	1434.519165	63.292248	-2354.699951	1335.146484	69.411453	-2546.900879	1047.299683	347.486237	-2429.729248	1039.387085	-223.184753	-2486.709106	803.532013	330.882889	-2278.877075	848.427216	-214.413452	-2409.368896	923.914856	217.049240	-2438.277588	930.246338	-84.887054	-2611.139893	947.747620	136.777420	-2621.839355	946.090210	36.619476	-2616.489624	946.918915	86.698448	-2608.912354	1159.183838	76.777313	-2292.431885	1148.354492	62.846439	-2403.678467	522.411316	268.580688	-2391.371582	444.205109	197.521362	-2374.459229	283.377411	232.122070	-2382.932861	61.145664	151.427872	-2435.670654	46.732094	89.313164	-2253.471680	45.025234	114.718781	-2423.624756	563.237122	-134.778168	-2472.785889	438.747772	-83.625107	-2571.198486	333.974792	-126.090225	-2732.696777	185.611847	-42.274078	-2775.225830	214.830048	15.018444	-2682.377197	47.424160	-5.517262
7	0.06000000	-2429.744873	1364.622925	264.757477	-2458.461670	1374.200928	-127.223618	-2499.914795	1434.575684	64.332367	-2346.599365	1335.340332	70.072861	-2535.273682	1046.419189	349.811646	-2427.057861	1038.270386	-221.041046	-2466.917725	804.714874	332.593826	-2278.388062	845.536865	-212.544701	-2400.830811	924.136230	217.996460	-2429.833984	930.173767	-83.975784	-2602.964844	948.188171	137.935837	-2613.558838	945.901550	37.801067	-2608.261841	947.044861	87.868452	-2600.663818	1159.326294	77.848526	-2284.437256	1148.177490	63.516098	-2395.724365	522.970337	269.613983	-2386.120361	444.247589	198.240295	-2370.372070	283.098267	232.310913	-2382.191650	60.980190	151.414673	-2435.214600	46.936157	89.317871	-2253.033936	44.524040	114.610397	-2404.634033	564.518188	-135.352097	-2450.663086	439.714874	-84.743050	-2549.508789	336.475922	-127.434532	-2715.794678	193.734924	-44.241722	-2757.990723	224.697891	12.530778	-2669.648438	53.383011	-7.141156
8	0.07000000	-2421.049561	1364.295654	265.373627	-2450.723633	1374.208008	-126.520119	-2491.822754	1434.662964	65.253380	-2338.523682	1335.483887	70.633400	-2523.448242	1045.572388	352.202728	-2424.332764	1037.150879	-218.931625	-2447.157593	806.167175	334.299240	-2277.952881	842.487701	-210.645500	-2392.343262	924.363953	218.915268	-2421.544678	930.067993	-83.200264	-2594.858398	948.612610	139.014923	-2605.331055	945.745972	38.933235	-2600.094727	947.179291	88.974079	-2592.461182	1159.492554	78.889030	-2276.636719	1147.870972	64.102043	-2386.745361	523.386780	270.576538	-2381.032227	444.270782	198.938522	-2366.374756	282.848389	232.493271	-2381.599854	60.856716	151.423431	-2434.813232	47.122734	89.282082	-2252.714111	44.198452	114.585686	-2386.153809	566.209839	-135.781616	-2428.553955	441.105469	-85.555016	-2527.453369	339.203522	-128.580399	-2697.887695	201.137207	-46.214016	-2740.178223	233.283279	10.050839	-2654.371826	59.549347	-9.106711
9	0.08000000	-2412.341553	1363.961792	265.898102	-2442.967041	1374.109985	-125.960007	-2483.705322	1434.780273	66.057343	-2330.473145	1335.583130	71.096863	-2511.424561	1044.774536	354.648285	-2421.548340	1036.042603	-216.858795	-2427.443726	807.894348	335.994461	-2277.623047	839.276825	-208.668251	-2383.902832	924.605225	219.807159	-2413.391602	929.942261	-82.549294	-2586.816895	949.020935	140.014008	-2597.152100	945.624084	40.011395	-2591.984497	947.322510	90.012701	-2584.303223	1159.680786	79.896729	-2269.028076	1147.454468	64.611412	-2377.358398	523.631836	271.446289	-2376.133545	444.271027	199.610550	-2362.610596	282.613922	232.675034	-2381.143799	60.776146	151.449203	-2434.466309	47.299156	89.206085	-2252.494873	43.998886	114.623360	-2368.185791	568.304932	-136.052460	-2406.520996	442.922394	-86.066765	-2505.224854	342.218201	-129.526367	-2679.010010	207.661682	-48.172981	-2721.784424	240.403549	7.651996	-2636.628662	65.601761	-11.405137
